# xmcd
#
# Track frame offsets:
#  150
#  9412
#  34817
#  56323
#  77381
#  78310
#  96759
#  117427
#  138060
#  160352
#  173950
#  187821
#
# Disc length: 2610 seconds
#
# Revision: 0
# Processed by: cddbd v1.5.1PL0 Copyright (c) Steve Scherf et al.
# Submitted via: Collectorz.com Music Collector 6.9
#
DISCID=840a300c
DTITLE=Mel Melton and The Wicked Mojos - Papa Mojo's Roadhouse
DYEAR=2005
DGENRE=Blues
TTITLE0=Zydeco Razzle
TTITLE1=Papa Mojo
TTITLE2=Juke Joints and Honkytonks
TTITLE3=Missing You Baby
TTITLE4=Ils Sont Parti
TTITLE5=Funky Nola
TTITLE6=Pray For Day
TTITLE7=Mama Mamou
TTITLE8=What I Say
TTITLE9=Bunkie Boogie
TTITLE10=Song For Laurel (Lagniappe)
TTITLE11=Song For Laurel (Lagniappe)
EXTD=
EXTT0=
EXTT1=
EXTT2=
EXTT3=
EXTT4=
EXTT5=
EXTT6=
EXTT7=
EXTT8=
EXTT9=
EXTT10=
EXTT11=
PLAYORDER=
